<?xml version="1.0" standalone="no"?>
<!DOCTYPE svg PUBLIC "-//W3C//DTD SVG 20010904//EN"
 "http://www.w3.org/TR/2001/REC-SVG-20010904/DTD/svg10.dtd">
<svg version="1.0" xmlns="http://www.w3.org/2000/svg"
 width="1280.000000pt" height="1280.000000pt" viewBox="0 0 1280.000000 1280.000000"
 preserveAspectRatio="xMidYMid meet">
<metadata>
Created by potrace 1.11, written by Peter Selinger 2001-2013
</metadata>
<g transform="translate(0.000000,1280.000000) scale(0.100000,-0.100000)"
fill="#000000" stroke="none">
<path d="M99 9322 l-36 -3 0 -2940 0 -2939 1541 2 1540 3 1 585 0 585 65 0 65
0 2 -575 c0 -316 1 -581 2 -587 1 -10 316 -13 1540 -13 l1539 0 0 899 c0 659
-3 901 -12 903 -6 2 -100 3 -208 3 l-197 -1 72 71 c92 91 111 113 168 205 44
72 114 220 103 220 -2 0 2 12 10 28 8 15 17 43 20 63 3 20 8 42 10 50 3 8 9
28 13 44 8 34 16 3372 8 3394 -4 10 -9 11 -16 4 -6 -6 -26 -7 -50 -3 -22 4
-42 3 -45 -1 -3 -5 -9 -7 -14 -4 -12 8 -169 9 -176 2 -3 -3 -18 -2 -32 2 -15
3 -47 4 -72 1 -25 -3 -58 -2 -74 2 -16 4 -36 4 -45 0 -9 -5 -32 -6 -51 -2 -19
3 -56 3 -82 0 -25 -4 -56 -2 -68 2 -13 5 -28 4 -35 -2 -6 -5 -14 -7 -17 -5 -3
3 -50 5 -104 5 -138 -1 -166 0 -175 6 -4 2 -10 0 -14 -6 -4 -6 -11 -8 -16 -5
-5 4 -66 6 -136 5 -71 0 -137 -1 -148 -1 -65 2 -119 0 -123 -4 -2 -2 -15 0
-28 5 -13 5 -26 6 -29 0 -3 -5 -18 -5 -33 -1 -15 5 -36 6 -47 4 -11 -2 -27 -4
-35 -4 -8 0 -44 0 -80 0 -36 0 -69 0 -75 0 -5 0 -35 0 -65 1 -103 0 -123 1
-131 6 -4 2 -10 0 -14 -6 -4 -6 -10 -8 -15 -5 -12 8 -169 9 -176 2 -3 -3 -18
-2 -32 2 -15 3 -47 4 -72 1 -25 -3 -58 -2 -74 2 -16 4 -36 4 -45 0 -9 -5 -32
-6 -51 -2 -19 3 -56 3 -82 0 -25 -4 -56 -2 -68 2 -13 5 -28 4 -35 -2 -6 -5
-14 -7 -17 -5 -3 3 -50 5 -104 5 -138 -1 -166 0 -175 6 -4 2 -10 0 -14 -6 -4
-6 -11 -8 -16 -5 -5 4 -66 6 -136 5 -71 0 -137 -1 -148 -1 -65 2 -119 0 -123
-4 -2 -2 -15 0 -28 5 -13 5 -26 6 -29 0 -3 -5 -18 -5 -33 -1 -15 5 -36 6 -47
4 -11 -2 -27 -4 -35 -4 -8 0 -44 0 -80 0 -36 0 -72 0 -80 0 -8 0 -51 0 -95 0
-44 0 -87 0 -95 0 -58 2 -114 0 -118 -4 -2 -2 -15 0 -28 5 -13 5 -26 6 -29 0
-3 -5 -18 -5 -33 -1 -15 5 -36 6 -47 4 -11 -2 -27 -4 -35 -4 -8 0 -44 0 -80 0
-36 0 -69 0 -75 0 -5 0 -35 0 -65 1 -103 0 -123 1 -131 6 -4 2 -10 0 -14 -6
-4 -6 -10 -8 -15 -5 -12 8 -169 9 -176 2 -3 -3 -18 -2 -32 2 -15 3 -47 4 -72
1 -25 -3 -58 -2 -74 2 -16 4 -36 4 -45 0 -9 -5 -32 -6 -51 -2 -19 3 -56 3 -82
0 -25 -4 -56 -2 -68 2 -13 5 -28 4 -35 -2 -6 -5 -14 -7 -17 -5 -3 3 -50 5
-104 5 -138 -1 -166 0 -175 6 -4 2 -10 0 -14 -6 -4 -6 -11 -8 -16 -5 -5 4 -66
6 -136 5 -71 0 -137 -1 -148 -1 -65 2 -119 0 -123 -4 -2 -2 -15 0 -28 5 -13 5
-26 6 -29 0 -3 -5 -18 -5 -33 -1 -15 5 -36 6 -47 4 -20 -4 -83 -4 -94 0 -3 1
-22 1 -42 -1z m3171 -2311 c0 -787 -4 -1189 -11 -1208 -12 -36 -45 -56 -84
-50 l-30 4 0 1216 0 1217 62 0 63 0 0 -1179z"/>
<path d="M6477 9318 c-8 -5 -11 -783 -11 -2940 l0 -2933 1539 0 1540 0 2 575
c1 316 2 580 2 586 1 12 114 14 126 2 7 -6 8 -69 5 -171 -2 -32 0 -60 3 -63 2
-3 1 -21 -3 -40 -5 -19 -4 -37 1 -40 5 -3 7 -9 4 -14 -6 -9 -8 -158 -2 -208 2
-18 1 -35 -3 -37 -3 -2 -4 -21 -2 -42 1 -21 2 -65 2 -98 -1 -33 -1 -67 -1 -75
3 -61 1 -142 -4 -150 -3 -5 -1 -11 5 -15 6 -4 8 -10 5 -15 -3 -4 -5 -41 -5
-82 1 -40 1 -83 1 -95 l-1 -23 1543 0 1542 0 -2 88 c0 48 -2 92 -3 97 -1 6 -1
15 0 20 3 12 2 446 0 460 -1 6 -1 15 0 20 3 12 2 446 0 460 -1 6 -1 15 0 20 5
23 3 453 -3 461 -3 6 -2 15 2 22 7 11 5 127 -3 147 -2 6 -69 10 -175 10 l-171
-1 33 36 c110 116 156 186 221 332 26 58 54 151 62 201 2 16 6 32 8 36 16 25
19 333 19 1814 1 1314 -2 1650 -12 1656 -7 5 -25 7 -39 5 -59 -7 -108 -7 -129
0 -12 4 -24 3 -27 -2 -3 -5 -25 -6 -48 -3 -24 3 -63 4 -88 1 -25 -3 -56 -2
-69 2 -14 5 -28 4 -36 -2 -6 -5 -14 -8 -17 -5 -7 7 -157 10 -164 3 -3 -4 -18
-3 -32 1 -15 3 -47 4 -72 1 -25 -3 -58 -2 -74 2 -16 4 -36 4 -45 0 -9 -5 -32
-6 -51 -2 -19 3 -56 3 -82 0 -25 -4 -56 -2 -68 2 -13 5 -28 4 -35 -2 -6 -5
-14 -7 -17 -4 -3 3 -61 5 -129 4 -68 0 -133 -1 -144 0 -69 1 -119 -1 -123 -5
-2 -2 -15 0 -28 5 -13 5 -26 6 -29 0 -3 -5 -18 -5 -33 -1 -15 5 -36 6 -47 4
-11 -2 -27 -4 -35 -4 -8 0 -44 0 -80 0 -36 0 -69 0 -75 0 -5 0 -35 0 -65 1
-103 0 -123 1 -131 6 -4 2 -10 0 -14 -6 -4 -6 -10 -8 -15 -5 -12 8 -169 9
-176 2 -3 -3 -18 -2 -32 2 -15 3 -47 4 -72 1 -25 -3 -58 -2 -74 2 -16 4 -36 4
-45 0 -9 -5 -32 -6 -51 -2 -19 3 -56 3 -82 0 -25 -4 -56 -2 -69 2 -12 5 -26 5
-31 0 -5 -5 -28 -6 -51 -3 -23 4 -58 4 -77 1 -19 -3 -48 -3 -65 0 -16 3 -69 3
-116 0 l-86 -5 0 -1731 c0 -952 -3 -1747 -7 -1767 -8 -45 -42 -70 -87 -65
l-32 4 0 1781 0 1781 -29 4 c-16 3 -31 1 -33 -3 -3 -4 -20 -4 -37 0 -18 3 -53
4 -78 1 -25 -3 -55 -2 -67 2 -12 4 -25 3 -28 -2 -3 -5 -18 -5 -33 -1 -15 5
-36 6 -47 4 -11 -2 -27 -4 -35 -4 -18 0 -141 0 -155 -1 -5 0 -25 2 -43 5 -18
2 -35 1 -37 -4 -3 -4 -18 -4 -33 -1 -15 4 -47 5 -72 2 -25 -3 -58 -2 -74 2
-16 4 -36 4 -45 0 -9 -5 -32 -6 -51 -2 -19 3 -56 3 -82 0 -25 -4 -56 -2 -68 2
-13 5 -28 4 -35 -2 -6 -5 -14 -8 -17 -5 -7 7 -157 10 -164 3 -3 -4 -18 -3 -32
1 -15 3 -47 4 -72 1 -25 -3 -58 -2 -74 2 -16 4 -36 4 -45 0 -9 -5 -32 -6 -51
-2 -19 3 -56 3 -82 0 -25 -4 -56 -2 -68 2 -13 5 -28 4 -35 -2 -6 -5 -14 -7
-17 -5 -3 3 -50 5 -104 5 -138 -1 -166 0 -175 6 -4 2 -10 0 -14 -6 -4 -6 -10
-8 -15 -5 -12 8 -169 9 -176 2 -3 -3 -18 -2 -32 2 -15 3 -47 4 -72 1 -25 -3
-58 -2 -74 2 -16 4 -36 4 -45 0 -9 -5 -32 -6 -51 -2 -19 3 -56 3 -82 0 -25 -4
-56 -2 -68 2 -13 5 -28 4 -35 -2 -6 -5 -14 -7 -17 -4 -3 3 -34 5 -69 4 -35 -1
-77 -1 -94 0 -126 5 -199 4 -208 -2z"/>
</g>
</svg>
