<?xml version="1.0" encoding="UTF-8"?>
<svg width="120px" height="120px" viewBox="0 0 120 120" version="1.1" xmlns="http://www.w3.org/2000/svg" xmlns:xlink="http://www.w3.org/1999/xlink">
    <title>Artboard</title>
    <g id="Artboard" stroke="none" stroke-width="1" fill="none" fill-rule="evenodd">
        <g id="robkovacs-2" transform="translate(0.000000, 1.500000)" fill="#2A323E" fill-rule="nonzero">
            <path d="M19.257,36.75 L19.257,29.4 L20.09,29.4 L20.09,36.75 L39.347,36.75 L39.347,25.48 L36.701,25.48 C38.318,24.206 39.298,22.246 39.298,19.943 L39.298,0 L-1.42108547e-14,0 L-1.42108547e-14,36.75 L19.257,36.75 Z M19.698,22.295 L19.257,22.295 L19.257,7.056 L20.041,7.056 L20.041,21.609 C20.041,21.952 19.894,22.295 19.698,22.295 Z M71.92,36.75 C76.624,36.75 79.27,33.859 79.27,29.547 L79.27,0 L47.273,0 C42.618,0 39.972,2.891 39.972,7.203 L39.972,36.75 L71.92,36.75 Z M59.572,29.645 L59.229,29.645 L59.229,7.938 C59.229,7.497 59.376,7.056 59.67,7.056 L60.013,7.056 L60.013,28.812 C60.013,29.253 59.866,29.645 59.572,29.645 Z M111.843,36.75 C116.547,36.75 119.193,33.859 119.193,29.547 L119.193,20.433 L116.645,20.433 C118.262,19.159 119.193,17.199 119.193,14.945 L119.193,0 L79.895,0 L79.895,36.75 L111.843,36.75 Z M99.495,17.885 L99.152,17.885 L99.152,6.811 L99.936,6.811 L99.936,17.199 C99.936,17.64 99.789,17.885 99.495,17.885 Z M99.495,29.89 L99.152,29.89 L99.152,24.255 L99.936,24.255 L99.936,29.057 C99.936,29.498 99.789,29.89 99.495,29.89 Z M19.257,76.75 L19.257,69.4 L20.09,69.4 L20.09,76.75 L39.347,76.75 L39.347,65.48 L37.142,65.48 C38.514,64.206 39.298,62.393 39.298,60.335 L39.298,40 L20.041,40 L20.041,61.609 C20.041,61.952 19.894,62.295 19.698,62.295 L19.257,62.295 L19.257,40 L-1.42108547e-14,40 L-1.42108547e-14,76.75 L19.257,76.75 Z M71.92,76.75 C76.624,76.75 79.27,73.859 79.27,69.547 L79.27,40 L47.273,40 C42.618,40 39.972,42.891 39.972,47.203 L39.972,76.75 L71.92,76.75 Z M59.572,69.645 L59.229,69.645 L59.229,47.938 C59.229,47.497 59.376,47.056 59.67,47.056 L60.013,47.056 L60.013,68.812 C60.013,69.253 59.866,69.645 59.572,69.645 Z M111.892,76.75 C116.596,76.75 119.193,73.859 119.193,69.547 L119.193,40 L99.936,40 L99.936,68.812 C99.936,69.253 99.789,69.645 99.495,69.645 L99.152,69.645 L99.152,40 L79.895,40 L79.895,76.75 L111.892,76.75 Z M19.257,116.75 L19.257,109.4 L20.041,109.4 L20.041,116.75 L39.298,116.75 L39.298,80 L-1.42108547e-14,80 L-1.42108547e-14,116.75 L19.257,116.75 Z M20.041,102.295 L19.257,102.295 L19.257,87.056 L20.041,87.056 L20.041,102.295 Z M71.871,116.75 C76.575,116.75 79.221,113.859 79.221,109.547 L79.221,103.03 L59.964,103.03 L59.964,108.812 C59.964,109.253 59.817,109.645 59.523,109.645 L59.18,109.645 L59.18,87.938 C59.18,87.497 59.327,87.056 59.621,87.056 L59.964,87.056 L59.964,102.246 L79.221,102.246 L79.221,80 L47.224,80 C42.569,80 39.923,82.891 39.923,87.203 L39.923,116.75 L71.871,116.75 Z M111.549,116.75 C116.204,116.75 118.85,113.859 118.85,109.547 L118.85,101.56 L99.054,101.56 L99.054,87.938 C99.054,87.497 99.201,87.056 99.495,87.056 L99.838,87.056 L99.838,100.776 L118.85,100.776 L118.85,80 L87.245,80 C82.59,80 79.797,82.891 79.797,87.203 L79.797,108.665 L99.593,108.665 L99.593,108.812 C99.593,109.155 99.446,109.449 99.152,109.449 L79.797,109.449 L79.797,116.75 L111.549,116.75 Z" id="robkovacs"></path>
        </g>
    </g>
</svg>