<svg xmlns="http://www.w3.org/2000/svg" width="117" height="117" viewBox="0 0 117 117">
  <path fill="#2a323e" fill-rule="evenodd" d="M37.56,13.32 C37.56,16.74 36,18.78 33.54,20.04 L37.56,23.94 L37.56,38.1 C37.56,38.46 37.32,38.7 36.96,38.7 L20.1,38.7 C19.74,38.7 19.5,38.46 19.5,38.1 L19.5,26.58 L18.66,25.62 L18.66,38.1 C18.66,38.46 18.42,38.7 18.06,38.7 L1.2,38.7 C0.84,38.7 0.6,38.46 0.6,38.1 L0.6,0.9 C0.6,0.54 0.84,0.3 1.2,0.3 L29.16,0.3 C34.56,0.3 37.56,3.3 37.56,8.7 L37.56,13.32 Z M19.5,16.98 L19.5,10.86 L18.66,10.86 L18.66,16.98 L19.5,16.98 Z M38.52,30.3 L38.52,8.7 C38.52,3.3 41.52,0.3 46.92,0.3 L67.08,0.3 C72.48,0.3 75.48,3.3 75.48,8.7 L75.48,30.3 C75.48,35.7 72.48,38.7 67.08,38.7 L46.92,38.7 C41.52,38.7 38.52,35.7 38.52,30.3 Z M56.58,10.86 L56.58,28.14 L57.42,28.14 L57.42,10.86 L56.58,10.86 Z M113.4,12.72 C113.4,15.9 111.84,17.88 109.5,19.2 C111.84,20.64 113.4,22.8 113.4,26.28 L113.4,30.3 C113.4,35.7 110.4,38.7 105,38.7 L77.04,38.7 C76.68,38.7 76.44,38.46 76.44,38.1 L76.44,0.9 C76.44,0.54 76.68,0.3 77.04,0.3 L105,0.3 C110.4,0.3 113.4,3.3 113.4,8.7 L113.4,12.72 Z M95.34,15.18 L95.34,10.86 L94.5,10.86 L94.5,15.18 L95.34,15.18 Z M95.34,28.14 L95.34,23.82 L94.5,23.82 L94.5,28.14 L95.34,28.14 Z M37.38,39.9 L37.38,55.02 L33.18,58.68 L37.38,62.82 L37.38,77.1 C37.38,77.46 37.14,77.7 36.78,77.7 L19.98,77.7 C19.68,77.7 19.44,77.46 19.44,77.1 L19.44,65.04 L18.54,64.08 L18.54,77.1 C18.54,77.46 18.3,77.7 18,77.7 L1.2,77.7 C0.84,77.7 0.6,77.46 0.6,77.1 L0.6,39.9 C0.6,39.54 0.84,39.3 1.2,39.3 L18,39.3 C18.3,39.3 18.54,39.54 18.54,39.9 L18.54,53.52 L19.44,52.56 L19.44,39.9 C19.44,39.54 19.68,39.3 19.98,39.3 L36.78,39.3 C37.14,39.3 37.38,39.54 37.38,39.9 Z M38.34,69.3 L38.34,47.7 C38.34,42.3 41.34,39.3 46.74,39.3 L66.9,39.3 C72.3,39.3 75.3,42.3 75.3,47.7 L75.3,69.3 C75.3,74.7 72.3,77.7 66.9,77.7 L46.74,77.7 C41.34,77.7 38.34,74.7 38.34,69.3 Z M56.4,49.86 L56.4,67.14 L57.24,67.14 L57.24,49.86 L56.4,49.86 Z M112.62,39.3 C112.98,39.3 113.22,39.54 113.22,39.9 L113.22,53.7 L105.54,77.22 C105.42,77.52 105.24,77.7 104.94,77.7 L84.54,77.7 C84.24,77.7 84.06,77.52 83.94,77.22 L76.26,53.7 L76.26,39.9 C76.26,39.54 76.5,39.3 76.86,39.3 L93.66,39.3 C94.02,39.3 94.26,39.54 94.26,39.9 L94.26,55.68 L94.38,67.14 L95.1,67.14 L95.22,55.68 L95.22,39.9 C95.22,39.54 95.46,39.3 95.82,39.3 L112.62,39.3 Z M30.96,78.3 C31.32,78.3 31.56,78.42 31.68,78.78 L37.56,102.3 L37.56,116.1 C37.56,116.46 37.32,116.7 36.96,116.7 L20.1,116.7 C19.74,116.7 19.5,116.46 19.5,116.1 L19.5,108.54 L18.66,108.54 L18.66,116.1 C18.66,116.46 18.42,116.7 18.06,116.7 L1.2,116.7 C0.84,116.7 0.6,116.46 0.6,116.1 L0.6,102.3 L6.54,78.78 C6.66,78.42 6.9,78.3 7.2,78.3 L30.96,78.3 Z M18.72,88.86 L18.6,99.9 L19.56,99.9 L19.44,88.86 L18.72,88.86 Z M74.88,97.44 C75.24,97.44 75.48,97.68 75.48,98.04 L75.48,108.3 C75.48,113.7 72.48,116.7 67.08,116.7 L46.92,116.7 C41.52,116.7 38.52,113.7 38.52,108.3 L38.52,86.7 C38.52,81.3 41.52,78.3 46.92,78.3 L67.08,78.3 C72.48,78.3 75.48,81.3 75.48,86.7 L75.48,96 C75.48,96.36 75.24,96.6 74.88,96.6 L58.02,96.6 C57.66,96.6 57.42,96.36 57.42,96 L57.42,88.86 L56.58,88.86 L56.58,106.14 L57.42,106.14 L57.42,98.04 C57.42,97.68 57.66,97.44 58.02,97.44 L74.88,97.44 Z M84.84,116.7 C79.44,116.7 76.44,113.7 76.44,108.3 L76.44,103.26 C76.44,102.9 76.68,102.6 77.04,102.6 L93.9,102.6 C94.26,102.6 94.5,102.84 94.5,103.14 L94.5,106.14 L95.34,106.14 L95.34,101.7 L84.84,101.7 C79.44,101.7 76.44,98.76 76.44,93.3 L76.44,86.7 C76.44,81.3 79.44,78.3 84.84,78.3 L105,78.3 C110.4,78.3 113.4,81.3 113.4,86.7 L113.4,91.98 C113.4,92.34 113.16,92.58 112.8,92.58 L95.94,92.58 C95.58,92.58 95.34,92.34 95.34,92.04 L95.34,88.86 L94.5,88.86 L94.5,93.48 L105,93.48 C110.4,93.48 113.4,96.42 113.4,101.88 L113.4,108.18 C113.4,113.1 109.8,116.7 104.88,116.7 L84.84,116.7 Z"/>
</svg>
