<?xml version="1.0" encoding="UTF-8"?>
<svg width="80px" height="37px" viewBox="0 0 80 37" version="1.1" xmlns="http://www.w3.org/2000/svg" xmlns:xlink="http://www.w3.org/1999/xlink">
    <title>Artboard</title>
    <g id="Artboard" stroke="none" stroke-width="1" fill="none" fill-rule="evenodd">
        <g id="robkovacs-2" transform="translate(-6.000000, -4.500000)"></g>
        <path d="M19.649,37 L19.649,29.65 L20.482,29.65 L20.482,37 L39.739,37 L39.739,25.73 L37.093,25.73 C38.71,24.456 39.69,22.496 39.69,20.193 L39.69,0.25 L0.392,0.25 L0.392,37 L19.649,37 Z M20.09,22.545 L19.649,22.545 L19.649,7.306 L20.433,7.306 L20.433,21.859 C20.433,22.202 20.286,22.545 20.09,22.545 Z M59.67,37 L59.67,29.65 L60.503,29.65 L60.503,37 L79.76,37 L79.76,25.73 L77.555,25.73 C78.927,24.456 79.711,22.643 79.711,20.585 L79.711,0.25 L60.454,0.25 L60.454,21.859 C60.454,22.202 60.307,22.545 60.111,22.545 L59.67,22.545 L59.67,0.25 L40.413,0.25 L40.413,37 L59.67,37 Z" id="RK" fill="#2A323E" fill-rule="nonzero"></path>
    </g>
</svg>